<?xml version="1.0" encoding="UTF-8" standalone="no"?>
<!-- Created with Inkscape (http://www.inkscape.org/) -->
<svg id="svg3578" xmlns:rdf="http://www.w3.org/1999/02/22-rdf-syntax-ns#" xmlns="http://www.w3.org/2000/svg" height="941" viewBox="0 0 721 941" width="721" version="1.1" xmlns:cc="http://creativecommons.org/ns#" xmlns:dc="http://purl.org/dc/elements/1.1/">
 <metadata id="metadata3584">
  <rdf:RDF>
   <cc:Work rdf:about="">
    <dc:format>image/svg+xml</dc:format>
    <dc:type rdf:resource="http://purl.org/dc/dcmitype/StillImage"/>
    <dc:title/>
   </cc:Work>
  </rdf:RDF>
 </metadata>
 <g id="g3606">
  <path id="path3604" d="m377.88 928.87-13.996-30.79-9.3304-27.991-9.3304-23.326-10.263-29.857-5.5982-20.527-7.4643-33.589-6.5313-82.108 6.5313-64.38 11.196-59.715 7.4643-30.79 8.3974-35.456 21.46-91.438 1.8661-41.987-3.7322-31.723-7.4643-40.121-12.13-29.857-19.594-32.656-11.196-21.46-5.5982-12.13-2.7991-9.3304m-45.719 756.7-5.5982-30.79-2.7991-27.058-.93304-39.188 3.7322-36.389 5.5982-44.786 8.3974-40.121 9.3304-39.188 6.5313-35.456 6.5313-30.79v-19.594l.93304-21.46 1.8661-28.924-1.8661-25.192-3.7322-27.991-3.7322-11.196-7.4643-34.522-7.4643-19.594-9.3304-21.46-9.3304-15.862-8.3974-13.996-10.263-12.13-11.196-13.063-11.196-12.13-13.996-10.263-12.13-10.263-32.656-11.196-19.594-.93304-21.46 4.6652-21.46 13.063-10.263 10.263-9.3304 16.795.93304 24.259 12.13 16.795 13.996 9.3304 12.13 4.6652h17.728l13.996-3.7322 18.661-16.795 1.8661-11.196 2.7991-9.3304-5.5982-11.196-13.996-12.13-11.196-3.7322-14.929-.93304-17.728 6.5313-7.4643 12.13v19.594l6.5313 10.263 11.196 7.4643 16.795-2.7991 4.6652-5.5982v-5.5982l-1.8661-11.196-7.4643-.93304-5.5982 2.7991v1.8661 1.8661l.93304 2.7991 3.7322 1.8661h4.6652l2.7991-4.6652v-2.7991m264.98 568.22 15.862-40.121 19.594-62.514 19.594-91.438 6.5313-48.518.93304-46.652-2.7991-35.456-7.4643-27.991-12.13-22.393-15.862-23.326-17.728-17.728-24.259-18.661-21.46-9.3304-16.795-3.7322-16.795-3.7322h-15.862l-21.46 7.4643-14.929 13.996-8.3974 14.929-5.5982 17.728-.93304 20.527 4.6652 23.326 11.196 21.46 15.862 11.196 22.393 8.3974 22.393-5.5982 5.5982-7.4643 2.7991-9.3304-1.8661-9.3304-2.7991-6.5313-5.5982-5.5982-9.3304-3.7322-9.3304-3.7322-9.3304-1.8661h-6.5313m83.974 369.48-.93304-24.259v-13.996l-6.5313-25.192-9.3304-23.326-3.7322-16.795-13.996-23.326-14.929-23.326-7.4643-8.3974-9.3304-10.263-8.3974-8.3974-12.13-12.13-13.996-12.13-7.4643-7.4643-13.996-11.196-19.594-18.661-9.3304-6.5313-10.263-12.13-11.196-13.996-9.3304-12.13-5.5982-9.3304-3.7322-7.4643-4.6652-11.196v-5.5982m287.38 313.5 13.063-29.857 4.6652-31.723v-18.661l-3.7322-27.058-6.5313-24.259-6.5313-17.728-3.7322-10.263-5.5982-14.929-7.4643-16.795-6.5313-12.13-7.4643-17.728-9.3304-23.326-4.6652-19.594-10.263-31.723-3.7322-29.857 1.8661-22.393 1.8661-22.393 5.5982-17.728v-27.991l4.6652-15.862 5.5982-34.522 1.8661-18.661 1.8661-12.13 2.7991-8.3974m-209.93 505.71 4.6652-38.255v-13.996l-1.8661-11.196-1.8661-26.125-4.6652-22.393-6.5313-17.728-6.5313-13.996-8.3974-16.795-12.13-12.13-12.13-7.4643-11.196-4.6652h-9.3304-13.996l-12.13 6.5313-10.263 7.4643-5.5982 8.3974-5.5982 7.4643-2.7991 7.4643v16.795l2.7991 13.063 5.5982 9.3304 5.5982 6.5313 10.263 6.5313 6.5313.93304h10.263l6.5313-4.6652.93304-4.6652v-1.8661l4.6652-3.7322v-2.7991l-3.7322-2.7991-6.5313-1.8661-.93304 3.7322v5.5982h2.7991l3.7322 1.8661m296.71 106.37 8.3974-24.259 2.7991-20.527 5.5982-27.058 1.8661-31.723 5.5982-31.723 9.3304-80.241 11.196-41.054 5.5982-23.326 10.263-25.192 14.929-30.79 15.862-24.259 22.393-23.326 22.393-17.728 21.46-4.6652 24.259 5.5982 14.929 12.13 9.3304 13.063 5.5982 16.795-2.7991 15.862-7.4643 14.929-5.5982 3.7322-5.5982 5.5982-12.13 6.5313-9.3304.93304-8.3974-.93304-5.5982-1.8661-2.7991-1.8661-2.7991-.93304v-2.7991l3.7322-6.5313 5.5982-3.7322-2.7991-4.6652-2.7991-3.7322-7.4643 2.7991-1.8661 4.6652v2.7991l1.8661 1.8661 1.8661.93304 2.7991.93304m-76.509 321.9-4.6652-13.063-1.8661-17.728-2.7991-30.79 1.8661-38.255 6.5313-36.389 12.13-32.656 17.728-31.723 16.795-21.46 22.393-16.795 21.46-6.5313h17.728l15.862 1.8661 20.527 9.3304 11.196 10.263 6.5313 13.996.93304 8.3974-2.7991 15.862-4.6652 12.13-5.5982 6.5313-8.3974 6.5313-9.3304 4.6652-17.728 2.7991-12.13-2.7991-7.4643-2.7991-10.263-6.5313-8.3974-10.263.93304-20.527 8.3974-10.263 10.263-8.3974 13.996-5.5982h17.728l8.3974 2.7991 5.5982 9.3304 3.7322 11.196v6.5313l-2.7991 10.263-8.3974 8.3974-6.5313 2.7991h-5.5982-8.3974l-2.7991-2.7991-2.7991-2.7991-1.8661-5.5982.93304-4.6652 3.7322-4.6652 5.5982 1.8661v2.7991l-4.6652 2.7991-4.6652-3.7322m-83.041 188.47 10.263-16.795 9.3304-11.196 15.862-17.728 9.3304-11.196 8.3974-9.3304 10.263-4.6652" stroke="#000" stroke-width="1px" fill="none"/>
 </g>
</svg>
