<?xml version="1.0" encoding="UTF-8" standalone="no"?>
<!-- Created with Inkscape (http://www.inkscape.org/) -->
<svg id="svg2" xmlns:rdf="http://www.w3.org/1999/02/22-rdf-syntax-ns#" xmlns="http://www.w3.org/2000/svg" height="955" viewBox="0 0 531 955" width="531" version="1.1" xmlns:cc="http://creativecommons.org/ns#" xmlns:dc="http://purl.org/dc/elements/1.1/">
 <metadata id="metadata8">
  <rdf:RDF>
   <cc:Work rdf:about="">
    <dc:format>image/svg+xml</dc:format>
    <dc:type rdf:resource="http://purl.org/dc/dcmitype/StillImage"/>
    <dc:title/>
   </cc:Work>
  </rdf:RDF>
 </metadata>
 <g id="g3407">
  <g id="g3358">
   <g id="g3348"></g>
  </g>
  <path id="path3405" d="m47.942 633.9 12.264-13.379 10.034-7.8046 6.6896-12.264 4.4598-14.494v-11.149l-4.4598-16.724-10.034-11.149-10.034 2.2299-6.6896 10.034-2.2299 12.264v12.264l-1.1149 12.264-5.5747-20.069-4.4598-8.9195-6.6896-4.4598-11.149-1.1149-4.4598 6.6896-1.1149 15.609 6.6896 15.609 8.9195 12.264 7.8046 11.149zm26.759 303.26 5.5747-15.609 8.9195-22.299 4.4598-15.609 6.6896-27.873 5.5747-25.644-3.3448-20.069-2.2299-24.529-3.3448-25.644-4.4598-20.069-6.6896-22.299-6.6896-20.069-8.9195-36.793-5.5747-11.149-5.5747-14.494-1.1149-10.034-6.6896-11.149-6.6896-18.954-3.3448-20.069-4.4598-25.644 2.2299-16.724v-16.724l3.3448-27.873 5.5747-24.529 6.6896-22.299 8.9195-21.184 3.3448-17.839 4.4598-15.609 1.1149-11.149v-10.034h12.264l7.8046-3.3448 5.5747-5.5747 4.4598-6.6896 1.1149-10.034 4.4598-10.034-10.034 4.4598-10.034 3.3448-8.9195-3.3448-18.954-8.9195-12.264-10.034-5.5747-1.1149-4.4598-4.4598 2.2299 16.724 5.5747 12.264 6.6896 13.379 11.149 10.034 6.6896 2.2299 2.2299 1.1149m191.77-137.14 15.609-22.299 14.494-20.069 12.264-22.299 16.724-20.069 14.494-8.9195 11.149-13.379 16.724-8.9195 18.954-3.3448 13.379 5.5747 10.034 11.149 3.3448 11.149v8.9195 10.034l-6.6896 18.954-6.6896 12.264-8.9195 10.034-8.9195 7.8046-8.9195 10.034-14.494 8.9195-7.8046 6.6896-7.8046 4.4598-7.8046 2.2299m-89.195-37.908-1.1149-21.184v-10.034l2.2299-21.184 4.4598-17.839 5.5747-15.609 6.6896-14.494 8.9195-12.264 10.034-13.379 14.494-5.5747 12.264-3.3448 10.034 3.3448 10.034 5.5747 7.8046 10.034 3.3448 17.839v18.954l-2.2299 13.379-5.5747 14.494-4.4598 14.494-8.9195 15.609-5.5747 14.494-5.5747 8.9195-6.6896 10.034-7.8046 11.149-6.6896 11.149-1.1149 3.3448m-186.18 713.56l3.3448-32.333 3.3448-34.563 4.4598-30.103 5.5747-21.184 5.5747-26.759 6.6896-37.908 2.2299-20.069 7.8046-30.103 2.2299-25.644 7.8046-44.598 5.5747-34.563 5.5747-26.759 6.6896-24.529 5.5747-30.103 7.8046-31.218 3.3448-17.839 12.264-33.448 10.034-30.103 7.8046-25.644 11.149-21.184 4.4598-17.839 14.494-30.103 5.5747-12.264 6.6896-10.034 10.034-27.873 8.9195 1.1149h12.264 10.034l18.954-8.9195 7.8046-6.6896 6.6896-7.8046 4.4598-10.034v-3.3448h-11.149l-10.034 3.3448h-14.494l-12.264-1.1149-8.9195-4.4598-10.034-5.5747-5.5747-4.4598-5.5747-5.5747-5.5747-8.9195-3.3448-8.9195-6.6896-4.4598v14.494l-1.1149 11.149 1.1149 14.494 4.4598 14.494 5.5747 7.8046 3.3448 5.5747 7.8046 4.4598 7.8046 4.4598h6.6896m26.759 400.26-2.2299-11.149-1.1149-13.379-2.2299-7.8046-1.1149-10.034 1.1149-8.9195v-7.8046l1.1149-3.3448 3.3448-5.5747 3.3448-3.3448 3.3448-3.3448h6.6896 4.4598l4.4598 3.3448 2.2299 4.4598 1.1149 5.5747 2.2299 4.4598v1.1149 1.1149m-192.88 331.14-1.1149-15.609 1.1149-13.379 1.1149-11.149 2.2299-8.9195 1.1149-12.264 3.3448-12.264 4.4598-11.149 3.3448-10.034 6.6896-13.379 5.5747-10.034 5.5747-6.6896 4.4598-6.6896 5.5747-6.6896 6.6896-8.9195 7.8046-7.8046 5.5747-8.9195 7.8046-6.6896 6.6896-6.6896 8.9195-8.9195 5.5747-6.6896 7.8046-7.8046 13.379-7.8046 11.149-12.264 7.8046-8.9195 7.8046-5.5747 7.8046-7.8046 2.2299-3.3448 4.4598-6.6896 5.5747-6.6896 5.5747-7.8046 3.3448-4.4598 1.1149-3.3448 15.609-1.1149 11.149-4.4598 16.724-4.4598 7.8046-2.2299 7.8046-10.034 7.8046-11.149 1.1149-15.609-2.2299-8.9195-5.5747-6.6896-6.6896-4.4598-3.3448 3.3448-6.6896 3.3448-5.5747 5.5747-4.4598 4.4598-8.9195 7.8046-4.4598 6.6896 2.2299-8.9195 2.2299-8.9195 1.1149-10.034 2.2299-15.609-1.1149-12.264 3.3448-16.724 2.2299-16.724 4.4598-13.379v-5.5747l2.2299-7.8046h5.5747 5.5747l10.034-1.1149 5.5747-1.1149 8.9195-3.3448 5.5747-6.6896 5.5747-6.6896 2.2299-1.1149 3.3448-5.5747h-2.2299l-12.264 1.1149h-10.034-6.6896l-7.8046-2.2299-8.9195-1.1149-6.6896-2.2299-5.5747-3.3448-3.3448-2.2299-2.2299-4.4598-2.2299-2.2299-1.1149 5.5747v10.034l1.1149 11.149 4.4598 7.8046 5.5747 5.5747 3.3448 1.1149v1.1149" stroke="#000" stroke-width="1px" fill="none"/>
 </g>
</svg>
