<?xml version="1.0" encoding="UTF-8" standalone="no"?>
<!-- Created with Inkscape (http://www.inkscape.org/) -->
<svg id="svg3720" xmlns:rdf="http://www.w3.org/1999/02/22-rdf-syntax-ns#" xmlns="http://www.w3.org/2000/svg" height="706" viewBox="0 0 543 706" width="543" version="1.1" xmlns:cc="http://creativecommons.org/ns#" xmlns:dc="http://purl.org/dc/elements/1.1/">
 <metadata id="metadata3726">
  <rdf:RDF>
   <cc:Work rdf:about="">
    <dc:format>image/svg+xml</dc:format>
    <dc:type rdf:resource="http://purl.org/dc/dcmitype/StillImage"/>
    <dc:title/>
   </cc:Work>
  </rdf:RDF>
 </metadata>
 <g id="g3744">
  <path id="path3742" d="m470.22 464.17-21.702-24.803-15.502-28.936-6.2007-31.003 5.1672-50.639 10.334-29.97 15.502-28.936 19.635-35.137 31.003-41.338 20.669-24.803 3.1003-4.1338 1.0334 28.936v26.87l-2.0669 29.97-3.1003 27.903-3.1003 29.97-8.2675 20.669-6.2006 24.803-9.301 23.769-7.2341 16.535-7.2341 14.468-4.1338 8.2675-7.2341 13.435-1.0334 7.2341-2.0669 9.301v6.2006l-1.0334 5.1672-1.0334 3.1003m-329.67 220.12 3.1003-21.702 1.0334-18.602 1.0334-19.635-2.0669-15.502-4.1338-24.803-3.1003-16.535-8.2675-28.936-4.1338-16.535-5.1672-15.502-8.2675-20.669-4.1338-13.435-7.2341-18.602-10.334-24.803-4.1338-14.468-4.1338-8.2675-3.1003-9.301-4.1338-9.301-4.1338-9.301-3.1003-7.2341-1.0334-2.0669m124 328.63l8.2676-31.003 4.1338-27.903 1.0334-32.037v-32.037l-3.1003-26.87-2.0669-27.903-6.2007-25.836-5.1672-23.769-6.2007-24.803-6.2007-28.936-10.334-36.17-10.334-33.07-9.301-33.07-6.2007-22.736-9.301-26.87-6.2007-19.635-4.1338-9.301v-7.2341m137.45 179.82 19.635-23.769 11.368-14.468 8.2675-15.502 7.2341-17.569 3.1003-15.502 3.1003-20.669 1.0334-19.635v-19.635l-5.1672-22.736-2.0669-15.502-8.2675-26.87-11.368-28.936-18.602-34.104-7.2341-16.535-22.736-34.104-19.635-27.903-14.468-19.635-23.769-23.769-3.1003-1.0334-2.0669 12.401v38.237l1.0334 46.505 2.0669 45.471 5.1672 37.204 8.2675 26.87 1.0334 15.502 12.401 33.07 14.468 36.17 11.368 24.803 14.468 29.97 8.2675 13.435 2.0669 10.334 3.1003 12.401zm126.08 285.23-14.468-41.338-7.2341-39.271-7.2341-48.572 1.0334-52.706 7.2341-81.642 7.2341-53.739 10.334-59.94 8.2675-42.371 6.2007-40.304 4.1338-27.903 4.1338-6.2006m-135.38 501.22-8.2675-82.675-4.1338-57.873-2.0669-31.003-2.0669-33.07 2.0669-49.605 3.1003-32.037 10.334-36.17 4.1338-28.936 2.0669-20.669-1.0334-17.569v-13.435l-4.1338-29.97-2.0669-9.301-6.2006-25.836-4.1338-14.468-7.2341-17.569-11.368-37.204-6.2007-16.535-10.334-24.803-5.1672-14.468-7.2341-16.535-7.2341-17.569-8.2675-20.669-9.301-20.669-3.1003-8.2675-3.1003-7.2341-2.0669-4.1338m289.36 673.8 5.1672-41.338 2.0669-36.17 3.1003-31.003v-14.468l3.1003-15.502-1.0334-15.502v-19.635l-1.0334-17.569-3.1003-21.702v-6.2007l-4.1338-13.435-4.1338-21.702-1.0334-16.535-4.1338-21.702 3.1003-10.334 2.0669-14.468 3.1003-15.502 5.1672-16.535 4.1338-16.535 7.2341-22.736 14.468-36.17 4.1338-13.435 6.2007-15.502 8.2675-17.569 7.2341-16.535 8.2675-20.669 2.0669-6.2007" stroke="#000" stroke-width="1px" fill="none"/>
 </g>
</svg>
