<?xml version="1.0" encoding="UTF-8" standalone="no"?>
<!-- Created with Inkscape (http://www.inkscape.org/) -->
<svg id="svg3824" xmlns:rdf="http://www.w3.org/1999/02/22-rdf-syntax-ns#" xmlns="http://www.w3.org/2000/svg" height="711" viewBox="0 0 365 711" width="365" version="1.1" xmlns:cc="http://creativecommons.org/ns#" xmlns:dc="http://purl.org/dc/elements/1.1/">
 <metadata id="metadata3830">
  <rdf:RDF>
   <cc:Work rdf:about="">
    <dc:format>image/svg+xml</dc:format>
    <dc:type rdf:resource="http://purl.org/dc/dcmitype/StillImage"/>
    <dc:title/>
   </cc:Work>
  </rdf:RDF>
 </metadata>
 <g id="g3842">
  <path id="path3840" d="m50.932 699.36-10.186-18.92-6.549-22.55-8.003-26.2-3.638-19.64-1.456-16.74-3.638-15.28v-21.828-32.742-32.742l2.1828-27.649.72760-29.832 2.1828-22.556v-17.462l2.1828-9.4588v-12.369m57.48 325.96 18.19-42.201 9.4588-45.111 4.3656-35.652 1.4552-34.925.72759-44.384-2.9104-40.018-2.1828-25.466-5.8208-32.014-4.3656-34.925-4.3656-42.201-5.8208-32.014-5.0932-26.194-.72760-16.007-4.3656-17.462-1.4552-8.0036m90.95 483.13 4.3656-32.742 3.638-36.38 3.638-45.839 4.3656-45.111 1.4552-40.018-.7276-44.384-3.638-41.473-2.1828-7.276 2.1828-14.552 1.4552-16.735 5.0932-22.556 18.918-33.47 12.369-26.921 13.824-34.925 13.097-41.473 8.0036-42.928 6.5484-44.384 1.4552-33.47 1.4552-34.197.7276-16.735v-23.283l-.7276-16.007-11.642 11.642-13.824 16.007-16.007 20.373-19.645 24.011-13.824 21.1-13.824 21.828-10.186 16.007-12.369 27.649-14.552 34.197-5.0932 13.824-6.5484 21.828-2.9104 23.283-2.1828 25.466 2.9104 25.466 4.3656 23.283 9.4588 18.918 11.642 18.19 10.186 13.824 8.0036 9.4588 8.0036 12.369 4.3656 4.3656-6.5484-24.738-6.5484-35.652-1.4552-34.197 3.638-32.742 5.0932-31.287 10.914-39.29 21.1-61.846 10.914-26.194 15.28-42.201 14.552-32.014 9.4588-24.011 8.0036-15.28m-45.111 691.95-2.9104-21.1v-18.918-12.369l1.4552-19.645 2.1828-16.735 4.3656-25.466 7.276-31.287 11.642-34.925 8.0036-22.556 10.186-28.376 14.552-35.652 8.0036-19.645 5.0932-16.735 3.638-8.0036 4.3656-5.8208" stroke="#000" stroke-width="1px" fill="none"/>
 </g>
</svg>
