<?xml version="1.0" encoding="UTF-8" standalone="no"?>
<!-- Created with Inkscape (http://www.inkscape.org/) -->

<svg
   xmlns:osb="http://www.openswatchbook.org/uri/2009/osb"
   xmlns:dc="http://purl.org/dc/elements/1.1/"
   xmlns:cc="http://creativecommons.org/ns#"
   xmlns:rdf="http://www.w3.org/1999/02/22-rdf-syntax-ns#"
   xmlns:svg="http://www.w3.org/2000/svg"
   xmlns="http://www.w3.org/2000/svg"
   xmlns:xlink="http://www.w3.org/1999/xlink"
   xmlns:sodipodi="http://sodipodi.sourceforge.net/DTD/sodipodi-0.dtd"
   xmlns:inkscape="http://www.inkscape.org/namespaces/inkscape"
   id="svg2"
   version="1.1"
   inkscape:version="0.91 r13725"
   width="1000"
   height="1002"
   viewBox="0 0 1000 1002"
   sodipodi:docname="up.svg">
  <metadata
     id="metadata8">
    <rdf:RDF>
      <cc:Work
         rdf:about="">
        <dc:format>image/svg+xml</dc:format>
        <dc:type
           rdf:resource="http://purl.org/dc/dcmitype/StillImage" />
        <dc:title></dc:title>
      </cc:Work>
    </rdf:RDF>
  </metadata>
  <defs
     id="defs6">
    <linearGradient
       id="linearGradient4741"
       osb:paint="solid">
      <stop
         style="stop-color:#000000;stop-opacity:1;"
         offset="0"
         id="stop4743" />
    </linearGradient>
    <linearGradient
       inkscape:collect="always"
       xlink:href="#linearGradient4741"
       id="linearGradient4749"
       gradientUnits="userSpaceOnUse"
       gradientTransform="matrix(0.31229159,0,0,0.22623178,723.39253,296.74185)"
       x1="110.00502"
       y1="435.14578"
       x2="176.50059"
       y2="435.14578" />
  </defs>
  <sodipodi:namedview
     pagecolor="#ffffff"
     bordercolor="#666666"
     borderopacity="1"
     objecttolerance="10"
     gridtolerance="10"
     guidetolerance="10"
     inkscape:pageopacity="0"
     inkscape:pageshadow="2"
     inkscape:window-width="1426"
     inkscape:window-height="726"
     id="namedview4"
     showgrid="false"
     inkscape:zoom="1.000998"
     inkscape:cx="490.79555"
     inkscape:cy="752.15455"
     inkscape:window-x="36"
     inkscape:window-y="1"
     inkscape:window-maximized="0"
     inkscape:current-layer="svg2" />
  <g
     id="g4751">
    <g
       transform="translate(7.3883967,0.82093297)"
       id="g3776">
      <g
         id="g3348" />
      <g
         transform="matrix(0.81927007,0.45546256,-0.39002809,0.90361968,391.6686,18.410076)"
         id="g3568"
         inkscape:transform-center-x="12.930838"
         inkscape:transform-center-y="-24.15379">
        <g
           id="g3570" />
      </g>
      <g
         id="g3698">
        <g
           id="g3534" />
        <g
           id="g3465" />
        <g
           transform="matrix(0.95689688,0,0,0.95475121,539.25504,6.5919579)"
           id="g3470" />
        <g
           transform="translate(-0.82093297,-0.82093297)"
           id="g3549">
          <g
             id="g3539" />
        </g>
        <g
           transform="matrix(0.91601864,0,0,1.0004902,551.14658,-11.650156)"
           id="g3556">
          <g
             id="g3558" />
        </g>
      </g>
    </g>
    <path
       id="ellipse4747"
       style="fill:#000000;fill-opacity:0;stroke:url(#linearGradient4749);stroke-width:1.48274481;stroke-miterlimit:4;stroke-dasharray:none"
       d="m 778.51218,395.18568 a 10.383003,7.707427 0 0 1 -10.38301,7.70742 10.383003,7.707427 0 0 1 -10.383,-7.70742 10.383003,7.707427 0 0 1 10.383,-7.70743 10.383003,7.707427 0 0 1 10.38301,7.70743 z m -654.34695,12.98703 a 10.383003,7.707427 0 0 1 -10.383,7.70742 10.383003,7.707427 0 0 1 -10.38301,-7.70742 10.383003,7.707427 0 0 1 10.38301,-7.70743 10.383003,7.707427 0 0 1 10.383,7.70743 z M 301.10434,15.416638 307.6718,2.2817102 M 778.88733,20.342236 782.99199,3.9235762 M 720.60109,16.237571 709.92896,3.1026432 M 772.31986,32.65623 769.03613,4.7445092 m 100.97476,54.1815758 18.06052,-25.448922 0.82093,-15.597726 -10.67212,6.567464 2.4628,-13.134928 -9.03027,4.104665 -4.9256,-5.746531 -27.91172,19.702391 -9.03026,-5.74653 4.10467,-19.7023918 M 407.00469,63.851683 429.99081,79.44941 449.6932,85.19594 m -40.22571,-24.627989 27.09079,8.20933 14.77679,0 8.20933,2.462799 m -46.79318,-13.955861 17.23959,1.641866 22.98613,0 16.41866,2.462799 m -55.00251,-8.209329 15.59772,0 19.70239,-6.567464 21.34426,0 23.80706,17.239592 6.56746,12.313995 1.64187,9.851195 m 59.10717,-18.060525 3.28373,-20.523324 -1.64186,-9.030263 -3.28373,-9.030263 -8.20933,-7.388396 3.28373,16.418659 -3.28373,14.776794 -2.4628,11.493061 -0.82094,4.925598 m -97.69102,34.479176 -0.82093,-23.807047 1.64186,-7.388397 9.8512,0 0,-10.672129 9.03026,0 5.74653,6.567464 1.64187,-4.104665 13.95586,13.955861 6.56746,11.493061 m -76.34676,46.793172 21.34425,-14.77679 3.28374,-6.56747 -8.20933,-7.38839 9.03026,-2.4628 -5.74653,-5.746526 3.28373,-12.313995 -9.8512,-2.462799 -15.59772,0 -9.03026,0 m 27.09078,72.2421 -8.20933,-12.314 -3.28373,-7.3884 0,-3.28373 m 49.25598,0.82094 -11.49306,-17.2396 -13.95586,-11.49306 -4.9256,0 m 85.37703,21.34426 -4.9256,-17.23959 -4.9256,-13.955858 -6.56746,-6.567464 -1.64187,4.104665 -4.92559,-7.388397 -6.56747,-5.74653 -3.28373,9.851195 -2.4628,3.283732 -5.74653,0 -5.74653,18.881457 2.4628,13.95586 0,1.64186 m 78.80956,-23.80705 -1.64186,-15.597725 -4.10467,-22.16519 -4.92559,-3.283732 -3.28374,5.746531 -6.56746,0 -14.77679,20.523324 -6.56747,13.955852 0,0 0,0 m -50.07691,59.92811 -11.49306,-11.49306 -14.77679,-7.3884 0,9.8512 -7.3884,-2.4628 0,20.52332 m -20.52333,55.82344 19.7024,3.28374 -14.7768,-11.49307 -9.03026,-7.38839 -5.74653,-2.4628 22.98612,-6.56746 14.7768,-7.3884 4.92559,-2.4628 -12.31399,-5.74653 12.31399,-7.3884 -13.13492,-12.31399 -13.13493,-6.56747 -8.20933,-2.4628 -3.28373,-0.82093 m -38.58385,102.61662 18.06052,6.56747 18.06053,0 5.74653,-2.4628 -9.8512,-11.49306 9.8512,4.92559 7.3884,-3.28373 -5.74654,-5.74653 -4.10466,-4.10466 12.31399,0.82093 -5.74653,-14.77679 -4.92559,-4.9256 -9.03027,-8.20933 m -44.33038,55.82344 9.8512,18.06053 4.10466,15.59772 -6.56746,4.10467 -0.82093,4.10466 m 14.77679,-9.03026 -10.67213,9.8512 -4.10466,0.82093 0.82093,7.3884 -3.28373,4.10466 -5.74653,-3.28373 -7.3884,-1.64187 -1.64187,6.56747 -18.88145,-9.8512 -5.74654,-3.28373 m 64.03278,74.7049 -8.20933,2.4628 -13.13493,2.4628 -5.74653,-1.64187 0,-7.3884 0,-1.64186 -6.56747,2.4628 -7.38839,-0.82094 4.9256,-10.67212 -12.314,-2.4628 13.95586,-13.95586 7.3884,-13.13493 7.3884,-0.82093 -2.4628,9.03026 12.31399,0.82093 19.70239,-7.3884 9.03027,-4.10466 m 44.33038,33.65825 -14.7768,21.34426 -8.20933,8.20933 -16.41866,-0.82093 -5.74653,0 4.10467,-9.8512 -11.49306,1.64187 -4.9256,-4.9256 -5.74653,4.9256 5.74653,-22.98613 9.03026,-10.67213 5.74653,-8.20933 m 229.0403,-251.20549 21.34426,0 16.41866,6.56747 7.38839,2.4628 M 581.86341,99.151801 593.35647,85.19594 l 20.52333,-4.925597 9.85119,10.672128 7.3884,1.641866 4.10467,-0.820933 4.10466,-4.104665 1.64187,19.702381 -2.4628,13.95587 -5.74653,13.13492 m -59.10718,27.09079 10.67213,-30.37452 0.82094,-15.59773 0,-12.31399 -4.10467,-3.283726 -7.3884,4.925596 -4.92559,-1.64187 -13.13493,17.23959 -8.20933,10.67213 m 82.0933,43.50945 13.95586,-22.98612 1.64186,-17.2396 0.82094,-3.28373 -8.20933,4.9256 -4.10467,-4.10467 -4.10466,-4.92559 0,-5.74653 -9.03027,1.64186 -11.49306,-2.4628 -2.4628,0 -15.59772,21.34426 -6.56747,13.13493 -2.4628,3.28373 m 91.9445,22.98612 18.06052,-19.70239 5.74653,-12.31399 -13.13493,4.92559 1.64187,-7.38839 -1.64187,-5.74653 -15.59772,2.4628 4.9256,-9.8512 -4.10467,-1.64187 -11.49306,5.74653 -9.8512,3.28374 m 4.10467,83.73516 21.34426,-15.59773 8.20933,-4.92559 m -22.16519,79.63049 28.73265,-5.74653 16.41866,-9.85119 -6.56746,-6.56747 -0.82094,-3.28373 0,-9.03026 -6.56746,-7.3884 -21.34426,-5.74653 -10.67213,0 m 31.19546,86.19796 14.77679,0 9.03026,-3.28373 5.74653,-3.28373 m -75.52583,20.52332 10.67213,2.4628 17.23959,-1.64186 7.3884,-0.82094 4.10466,-0.82093 -3.28373,-9.85119 4.10466,3.28373 0.82094,-4.10467 4.9256,-2.4628 3.28373,-8.20933 -6.56747,-5.74653 -11.49306,-6.56746 -5.74653,-2.4628 -5.74653,-4.10466 -5.74653,0 m -0.82093,85.37702 13.13492,4.9256 16.41866,0 4.9256,-2.4628 -6.56746,-10.67213 12.31399,-0.82093 -4.9256,-13.95586 -10.67212,-13.13493 -6.56747,-8.20933 m -27.09079,55.00251 1.64187,-5.74653 -5.74653,-6.56746 13.13493,2.4628 -6.56747,-20.52333 -4.92559,-7.38839 -5.74654,-6.56747 -3.28373,-3.28373 m -72.2421,51.71878 6.56746,12.31399 6.56747,6.56747 5.74653,4.92559 7.3884,3.28374 m 82.09329,-378.450098 -21.34425,-12.313995 -15.59773,-0.820933 0,7.388397 -13.95586,-1.641866 10.67213,12.313995 -11.49306,-3.283732 9.03026,22.986123 19.70239,14.776793 -16.41866,-4.104664 -23.80706,0 -13.13492,4.104664 -8.20933,-13.134927 -4.9256,-9.851196 9.03026,0 -9.03026,-9.030262 1.64187,-6.567464 9.03026,1.641866 -1.64187,-7.388397 18.88146,0 15.59773,4.104665 0.82093,0 m -151.05167,123.960871 -3.28373,-28.73265 6.56746,-4.9256 3.28374,4.10466 3.28373,-10.67212 4.9256,9.03026 2.4628,-9.03026 14.77679,19.70239 4.10466,23.80705 4.10467,8.20933 3.28373,-33.65825 11.49306,-16.41866 5.74653,1.64187 2.4628,-5.74653 5.74653,4.10466 4.10467,0 4.9256,18.88146 0,11.49306 -1.64187,13.95586 -4.9256,12.314 22.98612,-23.80706 14.7768,-8.20933 4.9256,-2.4628 2.46279,0 6.56747,-3.28373 1.64186,4.10467 -9.85119,29.55358 -17.23959,22.16519 -10.67213,16.41866 32.01638,-32.83732 19.7024,-14.77679 10.67212,3.28373 4.9256,0.82093 4.9256,0 -1.64187,9.8512 0,3.28373 6.56747,0 -1.64187,12.314 -14.77679,12.31399 -15.59773,8.20933 -19.70239,10.67213 37.76292,-9.03026 18.88146,0 7.38839,0.82093 -0.82093,9.03026 8.20933,0 -4.9256,7.3884 4.9256,4.10466 -12.314,6.56747 -16.41866,6.56746 -30.37452,5.74653 -5.74653,0 43.50945,7.3884 19.70239,11.49306 2.4628,5.74653 -3.28373,7.3884 1.64187,7.38839 -18.06053,4.10467 -22.98612,-2.4628 -19.70239,-5.74653 22.16519,13.13493 15.59772,13.95586 3.28373,6.56746 2.4628,6.56747 -6.56746,3.28373 -4.9256,5.74653 -1.64186,5.74653 -24.62799,-9.03026 -18.06053,-13.13493 -4.9256,-4.9256 11.49306,19.70239 7.3884,15.59773 3.28373,18.06052 0,2.4628 -11.49306,-5.74653 0,9.8512 -17.23959,-10.67213 -9.8512,-11.49306 -3.28373,-5.74653 4.10467,22.16519 0,8.20933 -3.28374,8.20933 -7.38839,-4.9256 -3.28373,9.85119 -5.74653,-9.85119 -4.9256,8.20933 -12.314,-19.70239 -1.64186,-13.95586 -2.4628,-9.03027 -4.9256,27.09079 -9.03026,18.88146 -8.20933,-4.10466 -4.9256,9.85119 -4.9256,-10.67213 -4.10466,1.64187 -5.74653,-9.8512 5.74653,-30.37452 3.28373,-12.31399 -21.34426,18.88146 -8.20933,6.56746 -8.20933,4.9256 -3.28373,2.4628 -4.9256,-1.64187 -6.56746,3.28373 2.4628,-16.41866 16.41866,-25.44892 8.20933,-13.95586 -14.7768,9.8512 -16.41866,15.59772 -9.85119,6.56747 -7.3884,-1.64187 -10.67213,-4.10466 2.4628,-8.20933 -5.74653,0 -4.10466,-1.64187 -4.9256,0 12.31399,-19.70239 15.59773,-12.314 20.52332,-8.20933 6.56747,-7.38839 -32.01639,9.85119 -17.23959,4.10467 -15.59773,-4.9256 4.10467,-8.20933 -8.20933,-1.64186 5.74653,-4.9256 -9.8512,-2.4628 27.09079,-13.95586 18.06053,-2.4628 14.77679,-4.9256 7.3884,-0.82093 -13.13493,-2.4628 -8.20933,-0.82093 -6.56746,-0.82094 m 284.0428,-8.20933 17.2396,-7.38839 10.67213,-10.67213 0.82093,-4.9256 -6.56747,-3.28373 -0.82093,-3.28373 0,-7.3884 0,-3.28373 -8.20933,-7.3884 -16.41866,-1.64186 -10.67213,-0.82094 -5.74653,0 4.9256,-7.38839 -8.20933,-1.64187 -1.64186,0 2.46279,-4.9256 -1.64186,-7.38839 -6.56747,1.64186 -0.82093,-6.56746 -1.64186,-1.64187 -19.7024,2.4628 -14.77679,4.10467 -2.4628,3.28373 m 118.21435,91.94449 -4.9256,31.19545 -5.74653,8.20933 -8.20933,2.4628 -13.13493,4.9256 2.4628,-9.03026 -4.10466,-8.20933 4.9256,-0.82094 0,-9.03026 5.74653,-4.9256 0,-2.4628 -10.67213,-7.38839 -9.8512,-5.74653 -8.20933,-1.64187 15.59773,-4.10466 13.95586,-19.7024 7.3884,-18.88145 6.56746,-12.314 m 202.77044,-83.73516 18.88146,-11.49306 4.10467,-7.3884 -6.56747,-4.9256 5.74653,-3.28373 -4.10466,-1.64187 2.4628,-7.388386 0,-5.746531 -7.3884,-4.925598 -11.49306,0 -8.20933,0 -4.10466,0 -1.64187,0.820933 m 4.10466,113.288742 16.41866,-3.28373 0,0 14.7768,-6.56746 -11.49306,-9.03027 17.23959,-6.56746 -16.41866,-9.8512 -12.314,-7.38839 -7.38839,-3.28373 m -9.03027,103.43755 7.3884,0 1.64187,-2.4628 -2.4628,-4.10466 -4.9256,-4.9256 11.49306,5.74653 5.74653,-6.56746 -4.92559,-4.10467 -8.20933,-6.56746 0,0 9.85119,3.28373 5.74653,0 -2.4628,-8.20933 -4.10466,-5.74653 -5.74653,-5.74653 -4.10467,-4.10467 -3.28373,-0.82093 m -77.1677,88.66076 17.23959,12.314 9.8512,3.28373 0,-8.20933 8.20933,6.56746 9.03026,-2.4628 -3.28373,-4.9256 0.82093,-8.20933 5.74653,-4.10466 -2.4628,-9.8512 -2.46279,-4.92559 -4.9256,-9.03027 -3.28373,-6.56746 M 78.631496,33.477163 60.57097,31.835297 l -10.672128,0 4.104664,9.851196 -8.209329,-1.641866 -4.104665,1.641866 0.820933,8.20933 6.567464,4.104664 -9.030263,-1.641865 -1.641866,-0.820933 5.746531,17.239592 9.851195,9.851196 m -4.104664,13.95586 -14.776794,3.283732 -13.134928,4.104665 -4.104664,3.283726 9.030262,9.03026 -12.313995,8.20933 13.134928,10.67213 12.313995,9.03026 9.030263,1.64187 m -10.672129,22.98612 -17.239593,12.314 -4.925598,5.74653 0,7.38839 -3.283732,7.3884 5.746532,5.74653 15.597726,8.20933 15.597727,1.64187 13.134927,0 m 0.820933,23.80705 -13.134928,16.41866 -6.567463,8.20933 0,4.10467 7.388396,0.82093 0,6.56746 4.104665,9.03027 10.672129,-0.82094 4.104665,7.3884 11.493061,-3.28373 12.313995,-7.3884 8.209328,-3.28373 m 11.49307,21.34426 -4.9256,16.41866 -3.28373,15.59772 0,4.10467 6.56746,-4.9256 5.74653,0 0,9.03026 1.64187,2.4628 9.03026,-1.64186 3.28373,-4.9256 1.64187,6.56746 2.4628,2.4628 8.20933,-2.4628 11.49306,-10.67213 3.28373,-2.46279 m 58.28624,-39.40479 -4.92559,27.91172 -8.20933,13.95586 -13.95586,2.4628 -9.03027,4.9256 3.28373,-9.85119 -4.10466,-1.64187 -4.9256,6.56746 -9.85119,-1.64186 -1.64187,0 -2.4628,4.92559 -5.74653,-16.41865 4.10467,-22.16519 6.56746,-13.13493 0.82093,-1.64187 m 623.36059,0.80653 -3.00796,14.78403 -2.25597,17.24804 -3.00796,5.74935 -7.5199,0 0,6.57069 -3.75995,0 -4.51193,-4.10668 -9.02389,-24.64007 0,-22.99738 0,-11.4987 0,-2.46401 m 63.16716,37.78144 9.02388,7.39201 9.02387,7.39202 -1.50397,-8.21335 9.77586,4.92801 6.76791,0 -4.51194,-9.85603 4.51194,-4.92801 2.25597,0 -2.25597,-18.06938 -5.26393,-14.78404 -1.50398,-7.39201 m -63.91914,56.67213 6.01592,15.60538 3.75995,7.39202 4.51194,9.85602 3.00796,4.92802 2.25597,3.28534 3.00796,3.28534 6.01591,-4.10668 -2.25596,-8.21335 3.75995,0 4.51194,-11.49869 3.00796,-26.28274 0,-6.57068 -8.27189,-9.03469 -3.00796,-9.03469 -1.50398,-1.64267 m -94.75073,40.24543 0.75199,22.17605 7.5199,16.42671 0.75199,8.21336 6.01591,-9.85602 6.76792,-0.82134 4.51194,0 4.51194,-8.21336 2.25597,1.64268 1.50397,11.49869 9.02389,-7.39202 12.03184,-4.92801 1.50397,-13.14137 2.25597,-9.85602 m -512.5474,-32.84423 -3.28373,14.77679 -2.4628,17.23959 -3.28373,5.74653 -8.20933,0 0,6.56747 -4.10467,0 -4.92559,-4.10467 -9.8512,-24.62799 0,-22.98612 0,-11.49306 0,-2.4628 m 68.95837,37.76292 9.8512,7.38839 9.85119,7.3884 -1.64186,-8.20933 10.67212,4.9256 7.3884,0 -4.9256,-9.8512 4.9256,-4.9256 2.4628,0 -2.4628,-18.06052 -5.74653,-14.7768 -1.64187,-7.38839 m -69.7793,56.64437 6.56747,15.59773 4.10466,7.3884 4.9256,9.85119 3.28373,4.9256 2.4628,3.28373 3.28373,3.28373 6.56746,-4.10466 -2.46279,-8.20933 4.10466,0 4.9256,-11.49306 3.28373,-26.26986 0,-6.56746 -9.03026,-9.03026 -3.28373,-9.03027 -1.64187,-1.64186 m -103.43755,40.22571 0.82093,22.16519 8.20933,16.41866 0.82093,8.20933 6.56746,-9.85119 7.3884,-0.82094 4.9256,0 4.9256,-8.20933 2.4628,1.64187 1.64186,11.49306 9.8512,-7.3884 13.13493,-4.92559 1.64186,-13.13493 2.4628,-9.8512 m 659.57138,-224.83545 23.56644,-13.324364 9.42659,-10.973015 3.14219,-7.837867 -6.28439,-1.567573 -3.14219,-1.567574 0.78554,-5.486507 0,-3.918934 -7.85548,-3.135147 -17.28206,-1.567574 -11.78322,2.351361 -7.06993,3.918933 -2.35665,0 m 26.70864,101.108481 12.56877,-6.27029 9.42658,-2.35136 10.21212,-5.4865 3.1422,-3.91894 -4.71329,-2.35136 3.14219,-3.91893 -0.78555,-3.91894 3.1422,-7.83787 0,-4.70271 -15.71096,-4.70273 -14.13988,-2.35136 -7.85548,0 m -52.63173,134.02754 14.13987,9.40543 12.56878,1.56758 9.42657,2.35136 6.28439,0 -3.92774,-7.83786 9.42658,2.35136 -4.71329,-12.54059 8.64102,3.91893 -3.14219,-11.7568 -3.92774,-8.62165 -7.85548,-7.83787 -8.64103,-5.48651 7.85548,-3.13515 10.99767,3.13515 16.49652,0.78379 11.78322,-3.91894 1.5711,-0.78379 -7.85548,-7.05407 12.56876,-7.05408 -9.42657,-10.18923 -9.42658,-7.83787 -10.99768,-6.27029 -3.92773,0 m -14.2473,-146.315412 26.26985,-10.672129 13.13493,0 6.56747,4.925598 2.46279,9.851195 9.8512,4.104665 1.64187,4.925598 -9.03027,15.597727 -9.85119,9.030262 -1.64187,1.641866 m -550.02509,37.76291 24.62799,-13.955854 9.8512,-11.493062 3.28373,-8.209329 -6.56747,-1.641866 -3.28373,-1.641866 0.82093,-5.746531 0,-4.104665 -8.20933,-3.283732 -18.06052,-1.641866 -12.314,2.462799 -7.38839,4.104665 -2.4628,0 m 27.91172,105.900347 13.13493,-6.56746 9.85119,-2.4628 10.67213,-5.74653 3.28373,-4.10467 -4.92559,-2.4628 3.28373,-4.10466 -0.82094,-4.10467 3.28374,-8.20933 0,-4.92559 -16.41866,-4.9256 -14.7768,-2.4628 -8.20933,0 m -55.00251,140.37954 14.7768,9.85119 13.13493,1.64187 9.85119,2.4628 6.56747,0 -4.10467,-8.20933 9.8512,2.4628 -4.9256,-13.13493 9.03026,4.10466 -3.28373,-12.31399 -4.10467,-9.03026 -8.20933,-8.20933 -9.03026,-5.74653 8.20933,-3.28374 11.49306,3.28374 17.2396,0.82093 12.31399,-4.10467 1.64187,-0.82093 -8.20933,-7.38839 13.13492,-7.3884 -9.85119,-10.67213 -9.8512,-8.20933 -11.49306,-6.56746 -4.10466,0 m -84.5561,129.70741 9.8512,7.38839 9.85119,7.3884 -1.64186,-8.20933 10.67212,4.9256 7.3884,0 -4.9256,-9.8512 4.9256,-4.9256 2.4628,0 -2.4628,-18.06052 -5.74653,-14.7768 -1.64187,-7.38839 m -69.7793,56.64437 6.56747,15.59773 4.10466,7.3884 4.9256,9.85119 3.28373,4.9256 2.4628,3.28373 3.28373,3.28373 6.56746,-4.10466 -2.46279,-8.20933 4.10466,0 4.9256,-11.49306 3.28373,-26.26986 0,-6.56746 -9.03026,-9.03026 -3.28373,-9.03027 -1.64187,-1.64186 m -103.43755,40.22571 0.82093,22.16519 8.20933,16.41866 0.82093,8.20933 6.56746,-9.85119 7.3884,-0.82094 4.9256,0 4.9256,-8.20933 2.4628,1.64187 1.64186,11.49306 9.8512,-7.3884 13.13493,-4.92559 1.64186,-13.13493 2.4628,-9.8512 m -118.21435,-96.04915 -9.85119,15.59772 -11.49307,22.98613 -3.283733,9.85119 13.134933,-4.9256 -3.28373,9.03027 4.9256,4.10466 8.20933,-6.56746 0,8.20933 9.03026,-1.64187 15.59773,-9.03026 9.03026,-13.13493 m -64.03278,-84.5561 -13.95586,12.314 -16.41866,11.49306 -4.104665,4.9256 3.283732,4.10466 1.641866,0 -3.283732,7.3884 4.104665,4.9256 9.030263,0.82093 1.641866,9.03026 15.597726,-4.10466 13.955859,-4.10467 6.56747,-1.64186 m -22.165195,-103.43756 -30.37452,7.3884 -13.95586,4.9256 0,5.74653 0.820933,6.56746 -6.567464,3.28373 15.597726,13.13493 18.881459,5.74653 12.313994,0 m -3.283732,-60.74904 -10.672128,-5.74653 -9.030263,-8.20933 -6.567464,-9.030254 -2.462799,-4.104665 9.851196,-2.462799 -7.388397,-9.030262 21.344258,-4.104665 23.807053,1.641866 7.388403,0 -15.59773,-14.776794 -11.493061,-14.776793 0,-9.851196 8.209329,1.641866 -4.925598,-9.851196 9.851196,-1.641866 2.462799,4.104665 -0.820933,-9.030262 22.986128,4.925597 15.59773,9.851196 2.4628,4.104665 m 386.86468,213.401107 4.2883,-25.69078 10.53347,-17.20463 3.44199,7.3676 4.65846,-3.279 -0.14433,4.2239 7.15251,-1.42755 0.18508,11.20587 -0.51571,10.9263 24.07562,-14.36995 6.76089,-2.44008 -1.85526,4.39754 -1.93764,2.6521 6.30724,2.51672 -1.77286,6.14308 6.30725,2.51673 -2.16447,5.13046 -16.22234,13.22204 -10.94542,8.47719 17.89143,0.28861 16.42773,5.69876 6.92566,1.05088 -8.30693,6.10471 8.40964,3.35568 -7.85328,1.14787 2.65877,5.34248 -7.37933,3.90597 -20.61223,0.33829 -13.85135,-2.10178 12.16086,9.99034 6.40995,11.97711 5.00834,11.41786 -8.32727,-1.61015 0.24715,5.23647 -4.90565,-1.95748 -3.17446,5.58377 -9.19284,-5.38076 -8.34761,-9.32509 -5.5444,-8.2065 -4.06039,-5.90172 -2.57639,-3.59699 0,0 5.04899,26.84766 0.65906,13.96388 -6.98768,4.91856 -4.34929,2.54607 -2.10241,-0.83891 -2.96799,-4.60955 -1.48399,-2.30475 -1.8756,-3.31733 -1.17478,-3.03769 -7.4617,2.16045 -5.60646,-2.2371 -0.94797,-5.51612 4.865,-13.47233 1.99968,-8.62146 1.77289,-6.14306 -10.61585,15.45913 -11.08985,12.70107 -12.73862,6.90534 -6.45169,1.70716 -3.81323,-0.66526 -2.49401,-1.8515 -0.7832,-2.02509 1.15444,-4.67724 6.59617,-5.93107 0.92761,-2.19876 -6.84325,0.69458 -0.78321,-2.02511 -0.16477,-3.49098 2.24684,-3.38503 0.22686,-2.47841 3.25688,-3.83829 4.12243,-0.0676 1.71081,-0.17368 8.22458,-7.85022 7.29694,-5.65144 6.76088,-2.44009 -18.03584,3.93529 -9.95568,0.30898 -10.57415,1.77498 -1.40163,-0.55926 5.89534,-6.21073 -6.30723,-2.51674 7.15247,-1.42752 -5.7712,-5.7281 19.27268,-6.86699 10.49178,-3.52033 -15.10851,-6.88496 -6.38965,-4.26224 -3.97801,-4.15626 -5.37961,-4.7155 7.9357,0.59761 0.0621,-5.96942 5.05007,-2.26646 -1.73113,-7.54125 9.33728,1.1569 5.29723,2.97 7.70887,3.07603 2.494,1.8515 -3.13276,-8.10054 -0.80352,-9.74001 -0.0203,-7.71488 3.87529,-5.30415 3.11243,0.3856 3.58642,3.14371 2.65878,5.34248 2.86528,-4.85088 2.1024,0.83894 3.50405,1.39818 4.20485,1.67782 -0.14433,4.22389 -1.77291,6.14306 4.06035,5.90176 3.13277,8.10053 z m 239.68546,-114.70803 -6.26565,-24.74555 3.13282,-19.332447 6.26566,5.413087 3.13283,-4.639791 1.5664,3.866491 6.26565,-3.866491 4.69925,10.052871 3.91605,10.05289 17.23054,-21.652355 5.48244,-4.63979 0,4.63979 -0.78321,3.093197 7.04886,0 0.78321,6.186388 7.04887,0 0,5.41308 -10.1817,17.78586 -7.04885,11.59948 17.23055,-6.18639 18.01376,-0.77329 7.04885,-1.54661 -5.48244,8.50629 9.39847,0 -7.04885,3.86649 4.69923,3.86648 -5.48244,6.1864 -19.58018,7.73297 -14.09772,3.0932 15.66414,4.63979 10.96489,8.50627 9.39849,8.50628 -8.61528,1.5466 2.34963,4.6398 -5.48247,0 -0.7832,6.18637 -10.96488,-1.54659 -11.74811,-5.4131 -8.61527,-5.41308 -6.26565,-3.86648 -3.91604,-2.31991 0,0 15.66413,22.42566 6.26565,12.37275 -4.69923,6.9597 -3.13283,3.86648 -2.34961,0 -4.69924,-3.09318 -2.34963,-1.5466 -3.13282,-2.31989 -2.34962,-2.3199 -6.26566,4.63979 -6.26566,0 -3.13283,-4.63979 -0.7832,-13.91936 -1.56642,-8.50629 -0.7832,-6.18638 -3.91604,17.78585 -5.48244,15.46597 -9.39848,10.82618 -5.48245,3.86648 -3.91602,0.77331 -3.13284,-0.77331 -1.56641,-1.54658 -0.78321,-4.6398 3.91604,-7.73298 0,-2.31989 -6.26566,3.09319 -1.56641,-1.5466 -1.56641,-3.09319 0.7832,-3.86649 -0.7832,-2.3199 1.56641,-4.63979 3.91603,-1.5466 1.56642,-0.7733 4.69924,-10.05287 4.69924,-7.73298 5.48244,-4.63978 -15.66413,10.05288 -9.39847,3.86648 -9.3985,5.41309 -1.56642,0 3.13284,-7.73299 -7.04886,0 6.26564,-3.86648 -7.83206,-3.0932 15.66414,-13.14606 8.61528,-6.9597 -17.23056,-0.77329 -7.83206,-1.54659 -5.48244,-2.31991 -7.04887,-2.31989 7.83207,-2.31989 -2.34962,-5.41309 3.91603,-3.86649 -4.69923,-6.18639 9.39847,-2.31988 6.26565,0.77329 8.61528,0 3.13284,0.77329 -6.26567,-6.18638 -4.69925,-8.50628 -3.13282,-6.95967 1.56642,-6.1864 3.13283,-0.77329 4.69924,1.54659 4.69925,3.86649 0.7832,-5.41308 2.34962,0 3.91603,0 4.69925,0 1.56641,3.86648 0.78321,6.18639 6.26564,3.86649 6.26566,6.1864 z m -531.32192,-1.82299 -6.56746,-26.26986 3.28373,-20.523316 6.56746,5.746531 3.28374,-4.925598 1.64186,4.104665 6.56746,-4.104665 4.9256,10.672123 4.10467,10.67213 18.06052,-22.986119 5.74653,-4.925598 0,4.925598 -0.82093,3.283732 7.3884,0 0.82093,6.567467 7.3884,0 0,5.74652 -10.67213,18.88146 -7.3884,12.31399 18.06053,-6.56746 18.88146,-0.82093 7.38839,-1.64187 -5.74653,9.03026 9.8512,0 -7.3884,4.10467 4.9256,4.10466 -5.74653,6.56747 -20.52333,8.20933 -14.77679,3.28373 16.41866,4.9256 11.49306,9.03026 9.8512,9.03026 -9.03027,1.64187 2.4628,4.9256 -5.74653,0 -0.82093,6.56746 -11.49306,-1.64187 -12.314,-5.74653 -9.03026,-5.74653 -6.56746,-4.10466 -4.10467,-2.4628 0,0 16.41866,23.80706 6.56746,13.13492 -4.92559,7.3884 -3.28374,4.10466 -2.46279,0 -4.9256,-3.28373 -2.4628,-1.64186 -3.28373,-2.4628 -2.4628,-2.4628 -6.56747,4.9256 -6.56746,0 -3.28373,-4.9256 -0.82093,-14.77679 -1.64187,-9.03027 -0.82093,-6.56746 -4.10467,18.88146 -5.74653,16.41866 -9.85119,11.49306 -5.74654,4.10466 -4.10466,0.82094 -3.28373,-0.82094 -1.64187,-1.64186 -0.82093,-4.9256 4.10466,-8.20933 0,-2.4628 -6.56746,3.28373 -1.64187,-1.64186 -1.64186,-3.28374 0.82093,-4.10466 -0.82093,-2.4628 1.64186,-4.9256 4.10467,-1.64186 1.64187,-0.82094 4.92559,-10.67212 4.9256,-8.20933 5.74653,-4.9256 -16.41866,10.67213 -9.85119,4.10466 -9.8512,5.74653 -1.64187,0 3.28374,-8.20933 -7.3884,0 6.56746,-4.10466 -8.20933,-3.28373 16.41866,-13.95586 9.03027,-7.3884 -18.06053,-0.82093 -8.20933,-1.64187 -5.74653,-2.4628 -7.3884,-2.4628 8.20933,-2.4628 -2.4628,-5.74653 4.10467,-4.10466 -4.9256,-6.56747 9.8512,-2.4628 6.56746,0.82094 9.03026,0 3.28374,0.82093 -6.56747,-6.56746 -4.9256,-9.03027 -3.28373,-7.38839 1.64187,-6.56747 3.28373,-0.82093 4.9256,1.64187 4.9256,4.10466 0.82093,-5.74653 2.4628,0 4.10466,0 4.9256,0 1.64187,4.10467 0.82093,6.56746 6.56746,4.10466 6.56747,6.56747 z m 271.72882,-56.644371 5.74653,-27.911722 18.06052,-10.672128 15.59773,-6.567464 9.03026,-10.672129 1.64187,-7.388396 -9.03027,22.16519 -14.77679,11.493062 -5.74653,8.209329 -7.3884,6.567464 -1.64186,9.030263 0,8.209329 0,4.925598 7.38839,6.567464 0,-23.807056 10.67213,-13.955861 13.13493,-14.776793 7.3884,-17.239593 -4.10467,24.62799 -7.3884,16.418659 -13.95586,17.239592 -3.28373,13.134928 m 155.15633,-59.928107 -9.03026,-20.523324 0,-7.388397 0,-8.2093297 m -30.37452,26.2698547 -9.85119,-18.881458 0,-6.5674638 M 237.8925,26.088766 l 0.82093,-16.418659 0,-5.7465308 M 142.66427,29.372498 136.09681,18.70037 134.45494,12.132906 133.63401,4.7445092 M 100.79669,21.984102 93.408289,9.670107 90.124557,2.2817102 M 540.81676,443.12271 l 13.95587,20.52332 9.03026,4.10467 0,-10.67213 6.56746,11.49306 6.56747,2.4628 1.64186,-10.67213 3.28373,-1.64186 5.74653,-3.28374 1.64187,-18.88145 0,-9.8512 -1.64187,-4.9256 7.3884,4.10467 3.28373,-9.8512 9.03027,5.74653 -2.4628,-9.85119 6.56746,4.10466 0.82093,-19.70239 -2.4628,-6.56746 -5.74653,-12.314 7.3884,0.82094 9.03026,5.74653 9.03027,3.28373 16.41866,4.9256 7.38839,10.67212 0,10.67213 0,10.67213 -9.85119,-9.85119 3.28373,12.31399 -4.10467,4.9256 -6.56746,-6.56747 -0.82093,9.03027 -18.88146,-9.8512 -5.74653,-3.28373 -3.28373,-2.4628 m 78.80956,-302.10333 -22.98612,-15.59772 -10.67213,-11.493065 -6.56746,-12.313994 -1.64187,-3.283732 12.31399,0.820933 -5.74653,-9.030263 18.06053,0 14.77679,9.851196 8.20933,4.925598 -13.95586,-19.702392 -3.28373,-9.851195 0.82093,-7.388397 0,-0.820933 6.56747,4.925598 -1.64187,-9.851196 5.74653,0 0.82093,0 0,-6.567464 18.06053,12.313995 8.20933,10.672128 10.67213,9.851196 1.64186,6.567464 -5.74653,-29.553587 0,-15.597727 2.4628,-7.388396 7.3884,0 0.82093,-9.030263 5.74653,4.104665 0.82094,1.641866 1.64186,-5.746531 12.314,13.955861 6.56746,18.060525 0.82093,14.776793 0,10.672129 15.59773,-32.837319 11.49306,-18.881458 2.4628,0 2.4628,-2.462799 4.10466,-0.820933 4.10467,13.95586 -3.28373,22.165191 -6.56747,28.732654 -3.28373,13.134927 22.98612,-52.53971 13.95586,-10.672129 10.67213,0 6.56747,6.567464 3.28373,3.283732 6.56746,-4.104665 -9.85119,32.016386 -16.41866,22.986123 -4.9256,6.567464 31.19545,-24.627989 14.7768,-6.567464 6.56746,-1.641866 -1.64187,8.20933 12.314,-4.104665 -3.28373,12.313995 10.67212,0 -27.09078,27.911719 -23.80706,11.49306 -3.28373,1.64186 41.04665,-9.03026 18.88146,1.64187 11.49306,4.92559 -3.28373,7.3884 1.64186,5.74653 4.10467,4.10467 -24.62799,14.77679 -20.52333,4.10467 -11.49306,-0.82094 41.04665,8.20933 13.95586,8.20933 -2.4628,6.56747 -3.28373,4.92559 -5.74653,0.82094 5.74653,7.38839 -11.49306,2.4628 -14.7768,0 -13.13492,-0.82093 -14.7768,-4.10467 22.98613,16.41866 15.59772,18.06053 0,6.56746 -9.85119,0 0.82093,4.9256 -10.67213,4.10467 -17.23959,-7.3884 -9.03026,-8.20933 13.95586,22.16519 0.82093,15.59773 -8.20933,-6.56747 2.4628,12.314 -5.74653,-3.28374 0,9.8512 -23.80706,-17.23959 -8.20933,-11.49306 -5.74653,-8.20933 -1.64186,-1.64187 7.38839,45.15131 -2.4628,6.56747 -6.56746,0 -2.4628,9.03026 -8.20933,-6.56746 -4.9256,1.64186 -13.13492,-21.34425 -0.82094,-27.09079 -1.64186,-4.9256 -17.2396,39.40478 -8.20933,11.49306 -4.10466,0 -5.74653,4.10467 -3.28373,-20.52333 4.10466,-26.26985 2.4628,-13.13493 m -245.63448,171.12048 -8.45363,11.85698 -8.74162,14.45632 -4.93157,3.69706 -6.72566,-3.73904 -2.5615,5.9345 -3.36283,-1.86953 -2.43445,-5.95248 1.53481,-26.74119 8.96523,-20.77071 4.48262,-10.38535 0.96056,-2.22544 m 41.76693,65.53127 5.18911,11.16315 5.18911,11.16315 1.85674,-8.16591 6.82222,9.31162 6.0531,3.36514 -0.19315,-11.14517 5.95652,-2.20744 2.01769,1.12171 5.02642,-17.44155 1.0554,-15.96994 1.53655,-7.4241 m -79.26099,19.4031 -0.70302,17.08566 0.48114,8.54582 0.19316,11.14515 0.76914,5.94649 0.73695,4.08896 1.40951,4.46286 6.98146,-0.71782 1.18418,-8.53982 3.36282,1.86951 8.51802,-8.14192 12.93624,-22.24235 2.56149,-5.93449 -3.87616,-12.27286 0.8318,-9.65555 -0.70477,-2.23143 m -100.43244,-10.76318 -7.97249,20.4028 0.32192,18.57527 -2.5293,7.79201 9.22276,-5.91049 6.37329,2.62332 4.03539,2.24342 7.23727,-5.17468 1.37732,2.60534 -3.13749,11.13316 10.95248,-2.18945 12.68217,1.53161 6.46812,-11.12118 5.85994,-7.78002 m -94.77853,-406.696005 26.26985,-10.672129 13.13493,0 6.56747,4.925598 2.46279,9.851195 9.8512,4.104665 1.64187,4.925598 -9.03027,15.597727 -9.85119,9.030262 -1.64187,1.641866 m -56.64437,-8.20933 9.85119,-19.702391 9.03026,-16.418659 0,-5.746531 -12.31399,3.283732 2.4628,-9.0302629 -3.28373,-2.4627989 -8.20933,4.1046649 -3.28373,-3.2837319 -6.56747,-0.820933 -11.49306,5.7465308 -8.20933,9.030263 -3.28373,4.925598 m -170.75406,125.602742 -25.44892,-5.74653 -18.060533,-5.74654 -9.030263,-5.74653 -4.104665,-6.56746 -4.104665,-6.56746 6.567464,-0.82094 0.820933,-6.56746 9.030263,-5.74653 32.837326,0.82093 18.06052,6.56747 4.9256,4.10466 -32.01638,-22.986117 -11.49307,-14.776793 -3.28373,-9.851196 7.3884,0 -0.82093,-9.030263 20.52332,0.820933 18.88146,10.672129 1.64186,3.283732 -15.59772,-22.16519 -0.82093,-9.851196 0.82093,-9.030263 8.20933,4.925598 -4.10467,-9.030263 2.4628,-2.462799 4.10467,2.462799 2.4628,-6.567463 16.41866,9.851195 12.31399,15.597727 12.31399,15.597726 -8.20933,-28.732654 0,-15.597726 2.4628,-9.851196 5.74653,-2.4627989 1.64187,-4.1046649 4.10467,0 3.28373,2.4627989 6.56746,-2.4627989 9.8512,9.8511958 4.92559,10.672129 4.9256,23.807056 0,7.388396 19.70239,-41.867581 4.9256,-5.7465309 4.10467,-1.641866 5.74653,-4.9255978 4.9256,13.1349277 0,27.090788 -6.56747,22.16519 -6.56746,22.986123 23.80705,-51.718777 10.67213,-14.776793 12.314,-3.283732 4.10466,-0.820933 1.64187,-0.820933 0,4.925598 4.9256,5.74653 8.20933,0.820933 2.46279,-4.104664 0,8.209329 -4.10466,18.881459 -11.49306,17.239592 -18.88146,21.344257 32.01639,-22.16519 21.34425,-10.672129 5.74653,-0.820933 0,6.567464 9.8512,0 -4.10467,10.672129 9.03027,-3.283732 -9.03027,14.776793 -17.23959,16.41866 -29.55359,17.239586 42.68852,-9.03026 18.06052,0 14.7768,4.9256 0.82093,4.92559 -1.64186,3.28374 0.82093,4.10466 2.4628,3.28373 0,4.9256 -21.34426,10.67213 -16.41866,2.4628 -16.41866,2.4628 -8.20933,0 27.09079,4.92559 22.98612,8.20933 10.67213,7.3884 -4.10466,6.56746 -5.74653,6.56747 3.28373,5.74653 -11.49306,4.9256 -22.16519,-1.64187 -13.13493,-3.28373 -5.74653,-1.64187 18.88146,14.7768 14.77679,17.23959 4.9256,10.67213 -11.49306,0.82093 3.28373,7.3884 -21.34426,-1.64187 -7.3884,-3.28373 -5.74653,-2.4628 -7.38839,-4.10466 15.59772,22.16519 0.82093,11.49306 -0.82093,4.10466 -8.20933,-5.74653 3.28373,11.49306 -7.38839,-1.64186 -1.64187,-5.74653 0,11.49306 -18.06052,-12.314 -11.49307,-13.95586 -7.38839,-10.67213 4.10466,27.09079 0.82094,19.70239 -2.4628,6.56747 -4.10467,-1.64187 -2.4628,2.4628 -0.82093,5.74653 0,4.10467 -3.28373,-2.4628 -7.3884,-8.20933 -1.64186,9.03026 -10.67213,-14.77679 -9.8512,-32.01639 0,-11.49306 -10.67213,27.91172 -8.20933,13.13493 -9.03026,7.38839 -4.10466,1.64187 -2.4628,9.03026 -6.56747,-17.23959 2.4628,-29.55359 4.9256,-18.88145 2.4628,-9.8512 -12.314,27.91172 -9.85119,20.52332 -7.3884,8.20933 -4.9256,-0.82093 -9.85119,0 -6.56747,2.4628 4.10467,-7.3884 -4.9256,1.64187 -3.28373,-1.64187 -4.10467,-1.64186 -7.38839,4.9256 6.56746,-32.83732 20.52333,-24.62799 9.85119,-9.8512 -22.98612,17.23959 -18.06053,9.03027 -12.31399,3.28373 -4.9256,0.82093 0,-7.38839 -8.20933,3.28373 -1.64187,-2.4628 3.28374,-6.56747 -9.8512,-0.82093 25.44892,-27.91172 16.41866,-9.8512 12.314,-9.03026 -26.26986,7.3884 -16.41866,2.4628 -13.95586,0.82093 -6.567468,0 -0.820933,-8.20933 -9.030263,-2.4628 1.641866,-9.03026 -4.925598,-4.9256 27.911726,-11.49306 14.77679,-2.4628 z m -110.005024,64.03277 -12.313994,12.31399 -4.104666,13.95586 0,14.7768 2.4628,13.95586 2.462799,13.13492 -3.283732,17.2396 -3.283733,10.67213 10.672129,-18.88146 2.462799,-15.59773 1.641866,-22.16519 4.925598,-16.41866 7.388397,-12.31399 5.746531,-5.74653 4.925597,-4.10467 8.20933,-2.4628 -5.746531,8.20933 4.104665,1.64187 -9.851195,10.67213 -9.030263,13.95586 -1.641866,12.31399 -3.283732,18.06053 -3.283732,5.74653 -4.104665,9.03026 -5.746531,11.49306 -2.462798,4.10467 18.881458,-17.2396 8.20933,-11.49306 2.462799,-9.03026 0,-2.4628 4.104664,0 -3.283731,9.03026 2.462798,4.9256 -9.030262,9.8512 -13.955861,10.67213 -8.209329,4.92559 -4.925599,1.64187 13.134928,0.82093 14.776794,-3.28373 17.239592,-11.49306 4.104665,-4.9256 0.820933,-3.28373 m 876.756422,-32.01639 12.31399,9.03027 8.20933,9.85119 7.3884,12.314 4.9256,13.13492 2.4628,8.20933 0,9.8512 -3.28374,7.3884 -0.82093,4.92559 0,3.28374 -5.74653,-16.41866 -11.49306,-25.44893 -7.3884,-8.20933 -6.56746,-7.38839 -6.56747,-6.56747 -5.74653,-4.10466 -3.28373,-3.28373 -9.85119,0 -7.3884,-2.4628 -7.3884,-0.82093 1.64187,3.28373 12.31399,8.20933 18.88146,13.13492 16.41866,13.13493 13.13493,15.59773 5.74653,17.23959 -9.03026,-13.13493 -7.3884,-5.74653 -9.03026,-4.9256 -11.49306,-6.56746 -7.3884,-3.28373 -8.20933,-4.10467 -9.03026,-9.85119 -5.74653,-8.20933 -2.4628,-6.56746 -7.3884,-4.10467 -0.82093,-1.64187 1.64186,6.56747 -1.64186,0.82093 -1.64187,1.64187 7.3884,15.59772 6.56746,9.8512 11.49306,6.56746 18.06053,7.3884 13.13493,4.9256 12.31399,6.56746 9.03026,9.8512 -20.52332,-12.314 -16.41866,-0.82093 -17.23959,-1.64187 -13.13493,-5.74653 -4.10467,-3.28373 -4.10466,-2.4628 m -644.43238,106.72129 10.67213,7.3884 13.95586,4.92559 12.31399,4.10467 13.95586,1.64186 13.95586,0 18.06053,-6.56746 9.85119,-10.67213 5.74653,-9.85119 3.28374,-9.03027 2.46279,-11.49306 0,-2.4628 -9.03026,0.82094 -2.4628,5.74653 -5.74653,10.67212 -9.03026,10.67213 -10.67213,6.56747 -13.13493,4.10466 -19.70239,0 -13.95586,0 -12.31399,-4.10466 -4.10467,-1.64187 12.314,-0.82093 20.52332,-1.64187 19.70239,-4.10466 15.59773,-7.3884 10.67213,-12.31399 14.77679,-17.2396 11.49306,-9.03026 6.56747,-4.9256 -7.3884,0.82094 -12.314,5.74653 -13.95586,7.38839 -11.49306,9.8512 -10.67213,7.3884 -6.56746,5.74653 -5.74653,6.56746 -5.74653,4.10467 -7.3884,4.10466 -7.3884,0 -12.31399,4.10467 -11.49306,1.64186 13.13493,-6.56746 13.95586,-12.314 18.88146,-14.77679 13.13492,-9.03026 17.23959,-7.3884 21.34426,-7.3884 14.7768,-2.4628 -4.10467,-2.46279 -3.28373,-0.82094 2.4628,-4.10466 -17.23959,-1.64187 -15.59773,2.4628 -12.314,5.74653 -14.77679,7.3884 -10.67213,9.03026 -10.67213,13.95586 -9.85119,11.49306 -9.8512,11.49306 z m 587.92157,-103.39023 10.44877,24.38047 5.80487,22.05851 0,18.57559 -3.48292,22.05852 -5.80487,13.9317 -9.2878,13.93169 -6.96585,8.12682 -12.77072,11.60975 -11.60974,4.6439 -13.9317,4.64389 -11.60974,-1.16097 -5.80488,-1.16098 -6.96584,-3.48292 -6.96585,-2.32195 -6.96585,-3.48292 -9.28779,-6.96585 -4.6439,-5.80487 -5.80488,-6.96585 -4.64389,-8.12682 -2.32195,-8.12682 0,-5.80488 0,-8.12682 3.48292,-10.44877 5.80487,-6.96585 10.44877,-2.32194 13.9317,2.32194 10.44877,3.48293 5.80487,5.80487 5.80488,8.12682 -1.16098,5.80488 -4.6439,6.96584 -1.16097,2.32195 m -660.59452,12.77072 12.77072,5.80487 12.77072,2.32195 9.2878,0 11.60975,-1.16097 16.25364,-3.48292 19.73657,-10.44878 16.25364,-9.28779 25.54144,-23.21949 12.77072,-16.25365 8.12682,-11.60974 4.6439,-4.6439"
       inkscape:connector-curvature="0" />
  </g>
</svg>
